<svg xmlns="http://www.w3.org/2000/svg" viewBox="0 0 128 128" width="128" height="128" role="img" aria-label="agnostic-code-metrics compact mark: a six-cell honeycomb around a composite score">
  <defs>
    <linearGradient id="t" x1="0" y1="0" x2="0" y2="1"><stop offset="0" stop-color="#26334A"/><stop offset="1" stop-color="#1B2430"/></linearGradient>
    <linearGradient id="b" x1="0" y1="0" x2="0" y2="1"><stop offset="0" stop-color="#C3CFDF"/><stop offset="1" stop-color="#8FA1BC"/></linearGradient>
    <linearGradient id="a" x1="0" y1="1" x2="0" y2="0"><stop offset="0" stop-color="#D6408F"/><stop offset="1" stop-color="#F272B6"/></linearGradient>
    <linearGradient id="c" x1="0" y1="0" x2="0" y2="1"><stop offset="0" stop-color="#4A5C7A"/><stop offset="1" stop-color="#2E3D52"/></linearGradient>
  </defs>

  <g stroke="#1B2430" stroke-width="2.5" stroke-linejoin="round">
    <path d="M81.32 14 L64 24 L64 44 L81.32 54 L98.64 44 L98.64 24 Z" fill="url(#c)"/>
    <path d="M46.68 14 L29.36 24 L29.36 44 L46.68 54 L64 44 L64 24 Z" fill="url(#c)"/>
    <path d="M29.36 44 L12.04 54 L12.04 74 L29.36 84 L46.68 74 L46.68 54 Z" fill="url(#c)"/>
    <path d="M98.64 44 L81.32 54 L81.32 74 L98.64 84 L115.96 74 L115.96 54 Z" fill="url(#c)"/>
    <path d="M46.68 74 L29.36 84 L29.36 104 L46.68 114 L64 104 L64 84 Z" fill="url(#c)"/>
    <!-- pink gated cell -->
    <path d="M81.32 74 L64 84 L64 104 L81.32 114 L98.64 104 L98.64 84 Z" fill="url(#a)"/>
    <!-- composite centre -->
    <path d="M64 44 L46.68 54 L46.68 74 L64 84 L81.32 74 L81.32 54 Z" fill="url(#b)"/>
  </g>
  <circle cx="64" cy="64" r="3.4" fill="url(#a)"/>
</svg>
